{
  "accessors": [
    {
      "bufferView": 2,
      "componentType": 5126,
      "count": 28,
      "max": [
        0.0178763996809721,
        1.0,
        -0.08431030064821243
      ],
      "min": [
        -0.014241100288927555,
        0.9531570076942444,
        -0.12093699723482132
      ],
      "type": "VEC3"
    },
    {
      "bufferView": 2,
      "byteOffset": 336,
      "componentType": 5126,
      "count": 28,
      "max": [
        0.9870973825454712,
        0.6758840084075928,
        0.9833171367645264
      ],
      "min": [
        -0.9870973825454712,
        0.1601209044456482,
        -0.9833171367645264
      ],
      "type": "VEC3"
    },
    {
      "bufferView": 3,
      "componentType": 5126,
      "count": 28,
      "max": [
        1.0,
        0.9864469766616821,
        0.12320099771022797,
        1.0
      ],
      "min": [
        0.15410299599170685,
        -0.9864469766616821,
        -0.2715640068054199,
        1.0
      ],
      "type": "VEC4"
    },
    {
      "bufferView": 1,
      "componentType": 5126,
      "count": 28,
      "max": [
        0.21295100450515747,
        0.19558699429035187
      ],
      "min": [
        0.03619249910116196,
        0.008515049703419209
      ],
      "type": "VEC2"
    },
    {
      "bufferView": 0,
      "componentType": 5125,
      "count": 36,
      "type": "SCALAR"
    },
    {
      "bufferView": 2,
      "byteOffset": 672,
      "componentType": 5126,
      "count": 400,
      "max": [
        0.0747395008802414,
        0.5356289744377136,
        -0.04499939829111099
      ],
      "min": [
        -0.06860619783401489,
        0.3289850056171417,
        -0.1611659973859787
      ],
      "type": "VEC3"
    },
    {
      "bufferView": 2,
      "byteOffset": 5472,
      "componentType": 5126,
      "count": 400,
      "max": [
        1.0,
        1.0,
        1.0
      ],
      "min": [
        -1.0,
        -1.0,
        -1.0
      ],
      "type": "VEC3"
    },
    {
      "bufferView": 3,
      "byteOffset": 448,
      "componentType": 5126,
      "count": 400,
      "max": [
        1.0,
        0.9333890080451965,
        1.0,
        1.0
      ],
      "min": [
        -0.6399660110473633,
        -0.8288319706916809,
        -1.0,
        -1.0
      ],
      "type": "VEC4"
    },
    {
      "bufferView": 1,
      "byteOffset": 224,
      "componentType": 5126,
      "count": 400,
      "max": [
        0.9865310192108154,
        0.9961029887199402
      ],
      "min": [
        0.2698509991168976,
        0.4184420108795166
      ],
      "type": "VEC2"
    },
    {
      "bufferView": 0,
      "byteOffset": 144,
      "componentType": 5125,
      "count": 804,
      "type": "SCALAR"
    },
    {
      "bufferView": 2,
      "byteOffset": 10272,
      "componentType": 5126,
      "count": 467,
      "max": [
        0.10074199736118317,
        0.4032000005245209,
        -0.07568670064210892
      ],
      "min": [
        -0.09409940242767334,
        -0.919933021068573,
        -0.1289989948272705
      ],
      "type": "VEC3"
    },
    {
      "bufferView": 2,
      "byteOffset": 15876,
      "componentType": 5126,
      "count": 467,
      "max": [
        1.0,
        1.0,
        1.0
      ],
      "min": [
        -1.0,
        -0.8144911527633667,
        -1.0
      ],
      "type": "VEC3"
    },
    {
      "bufferView": 3,
      "byteOffset": 6848,
      "componentType": 5126,
      "count": 467,
      "max": [
        1.0,
        0.24516700208187103,
        0.9999849796295166,
        1.0
      ],
      "min": [
        -1.0,
        -0.25011101365089417,
        -0.9999849796295166,
        -1.0
      ],
      "type": "VEC4"
    },
    {
      "bufferView": 1,
      "byteOffset": 3424,
      "componentType": 5126,
      "count": 467,
      "max": [
        0.9391430020332336,
        0.9947569966316223
      ],
      "min": [
        0.012877699919044971,
        0.20758700370788574
      ],
      "type": "VEC2"
    },
    {
      "bufferView": 0,
      "byteOffset": 3360,
      "componentType": 5125,
      "count": 1824,
      "type": "SCALAR"
    },
    {
      "bufferView": 2,
      "byteOffset": 21480,
      "componentType": 5126,
      "count": 872,
      "max": [
        0.0496940016746521,
        0.9769960045814514,
        -0.05580240115523338
      ],
      "min": [
        -0.0446712002158165,
        0.533312976360321,
        -0.14873500168323517
      ],
      "type": "VEC3"
    },
    {
      "bufferView": 2,
      "byteOffset": 31944,
      "componentType": 5126,
      "count": 872,
      "max": [
        1.0,
        1.0,
        0.9848077893257141
      ],
      "min": [
        -1.0,
        -1.0,
        -0.9848080277442932
      ],
      "type": "VEC3"
    },
    {
      "bufferView": 3,
      "byteOffset": 14320,
      "componentType": 5126,
      "count": 872,
      "max": [
        1.0,
        0.09125299751758575,
        1.0,
        1.0
      ],
      "min": [
        -1.0,
        -0.09032510221004486,
        -1.0,
        -1.0
      ],
      "type": "VEC4"
    },
    {
      "bufferView": 1,
      "byteOffset": 7160,
      "componentType": 5126,
      "count": 872,
      "max": [
        0.9877269864082336,
        0.9922099709510803
      ],
      "min": [
        0.7271850109100342,
        0.2684670090675354
      ],
      "type": "VEC2"
    },
    {
      "bufferView": 0,
      "byteOffset": 10656,
      "componentType": 5125,
      "count": 2586,
      "type": "SCALAR"
    },
    {
      "bufferView": 2,
      "byteOffset": 42408,
      "componentType": 5126,
      "count": 546,
      "max": [
        0.27471399307250977,
        0.6107079982757568,
        -0.06176089867949486
      ],
      "min": [
        -0.2660579979419708,
        0.3915350139141083,
        -0.14605599641799927
      ],
      "type": "VEC3"
    },
    {
      "bufferView": 2,
      "byteOffset": 48960,
      "componentType": 5126,
      "count": 546,
      "max": [
        0.9405697584152222,
        0.7839571237564087,
        0.9749943614006042
      ],
      "min": [
        -0.9405697584152222,
        -0.7863571047782898,
        -0.975259006023407
      ],
      "type": "VEC3"
    },
    {
      "bufferView": 3,
      "byteOffset": 28272,
      "componentType": 5126,
      "count": 546,
      "max": [
        0.989084005355835,
        0.9177780151367188,
        0.9995859861373901,
        1.0
      ],
      "min": [
        -0.7908859848976135,
        -0.7897859811782837,
        -0.8101069927215576,
        -1.0
      ],
      "type": "VEC4"
    },
    {
      "bufferView": 1,
      "byteOffset": 14136,
      "componentType": 5126,
      "count": 546,
      "max": [
        0.9940580129623413,
        0.9916110038757324
      ],
      "min": [
        0.43030399084091187,
        0.0076284101232886314
      ],
      "type": "VEC2"
    },
    {
      "bufferView": 0,
      "byteOffset": 21000,
      "componentType": 5125,
      "count": 1212,
      "type": "SCALAR"
    },
    {
      "bufferView": 2,
      "byteOffset": 55512,
      "componentType": 5126,
      "count": 108,
      "max": [
        0.5856750011444092,
        -0.7800300121307373,
        0.4429520070552826
      ],
      "min": [
        -0.585673987865448,
        -1.0,
        -0.4429520070552826
      ],
      "type": "VEC3"
    },
    {
      "bufferView": 2,
      "byteOffset": 56808,
      "componentType": 5126,
      "count": 108,
      "max": [
        0.9311092495918274,
        1.0,
        0.9464659094810486
      ],
      "min": [
        -0.9311001300811768,
        -1.0,
        -0.9382510185241699
      ],
      "type": "VEC3"
    },
    {
      "bufferView": 3,
      "byteOffset": 37008,
      "componentType": 5126,
      "count": 108,
      "max": [
        1.0,
        0.9563159942626953,
        0.6377999782562256,
        1.0
      ],
      "min": [
        -1.0,
        -0.9515339732170105,
        -0.6186059713363647,
        -1.0
      ],
      "type": "VEC4"
    },
    {
      "bufferView": 1,
      "byteOffset": 18504,
      "componentType": 5126,
      "count": 108,
      "max": [
        0.5884379744529724,
        0.40127798914909363
      ],
      "min": [
        0.2314389944076538,
        0.012396899983286858
      ],
      "type": "VEC2"
    },
    {
      "bufferView": 0,
      "byteOffset": 25848,
      "componentType": 5125,
      "count": 420,
      "type": "SCALAR"
    }
  ],
  "asset": {
    "extras": {
      "author": "ArdianVrijenhoek (https://sketchfab.com/ArdianVrijenhoek)",
      "license": "CC-BY-4.0 (http://creativecommons.org/licenses/by/4.0/)",
      "source": "https://sketchfab.com/3d-models/master-sword-fd90d9b8602e4ec08d652053fba43638",
      "title": "master sword"
    },
    "generator": "Sketchfab-12.67.0",
    "version": "2.0"
  },
  "bufferViews": [
    {
      "buffer": 0,
      "byteLength": 27528,
      "name": "floatBufferViews",
      "target": 34963
    },
    {
      "buffer": 0,
      "byteLength": 19368,
      "byteOffset": 27528,
      "byteStride": 8,
      "name": "floatBufferViews",
      "target": 34962
    },
    {
      "buffer": 0,
      "byteLength": 58104,
      "byteOffset": 46896,
      "byteStride": 12,
      "name": "floatBufferViews",
      "target": 34962
    },
    {
      "buffer": 0,
      "byteLength": 38736,
      "byteOffset": 105000,
      "byteStride": 16,
      "name": "floatBufferViews",
      "target": 34962
    }
  ],
  "buffers": [
    {
      "byteLength": 143736,
      "uri": "scene.bin"
    }
  ],
  "images": [
    {
      "uri": "textures/DefaultMaterial_baseColor.jpeg"
    },
    {
      "uri": "textures/DefaultMaterial_metallicRoughness.png"
    },
    {
      "uri": "textures/DefaultMaterial_normal.jpeg"
    }
  ],
  "materials": [
    {
      "doubleSided": true,
      "name": "DefaultMaterial",
      "normalTexture": {
        "index": 2
      },
      "occlusionTexture": {
        "index": 1
      },
      "pbrMetallicRoughness": {
        "baseColorTexture": {
          "index": 0
        },
        "metallicRoughnessTexture": {
          "index": 1
        }
      }
    }
  ],
  "meshes": [
    {
      "name": "defaultMaterial",
      "primitives": [
        {
          "attributes": {
            "NORMAL": 1,
            "POSITION": 0,
            "TANGENT": 2,
            "TEXCOORD_0": 3
          },
          "indices": 4,
          "material": 0,
          "mode": 4
        }
      ]
    },
    {
      "name": "defaultMaterial",
      "primitives": [
        {
          "attributes": {
            "NORMAL": 6,
            "POSITION": 5,
            "TANGENT": 7,
            "TEXCOORD_0": 8
          },
          "indices": 9,
          "material": 0,
          "mode": 4
        }
      ]
    },
    {
      "name": "defaultMaterial",
      "primitives": [
        {
          "attributes": {
            "NORMAL": 11,
            "POSITION": 10,
            "TANGENT": 12,
            "TEXCOORD_0": 13
          },
          "indices": 14,
          "material": 0,
          "mode": 4
        }
      ]
    },
    {
      "name": "defaultMaterial",
      "primitives": [
        {
          "attributes": {
            "NORMAL": 16,
            "POSITION": 15,
            "TANGENT": 17,
            "TEXCOORD_0": 18
          },
          "indices": 19,
          "material": 0,
          "mode": 4
        }
      ]
    },
    {
      "name": "defaultMaterial",
      "primitives": [
        {
          "attributes": {
            "NORMAL": 21,
            "POSITION": 20,
            "TANGENT": 22,
            "TEXCOORD_0": 23
          },
          "indices": 24,
          "material": 0,
          "mode": 4
        }
      ]
    },
    {
      "name": "defaultMaterial",
      "primitives": [
        {
          "attributes": {
            "NORMAL": 26,
            "POSITION": 25,
            "TANGENT": 27,
            "TEXCOORD_0": 28
          },
          "indices": 29,
          "material": 0,
          "mode": 4
        }
      ]
    }
  ],
  "nodes": [
    {
      "children": [
        1
      ],
      "matrix": [
        1.0,
        0.0,
        0.0,
        0.0,
        0.0,
        2.220446049250313e-16,
        -1.0,
        0.0,
        0.0,
        1.0,
        2.220446049250313e-16,
        0.0,
        0.0,
        0.0,
        0.0,
        1.0
      ],
      "name": "Sketchfab_model"
    },
    {
      "children": [
        2,
        4,
        6,
        8,
        10,
        12
      ],
      "matrix": [
        1.0,
        0.0,
        0.0,
        0.0,
        0.0,
        -4.371139006309477e-08,
        0.999999999999999,
        0.0,
        0.0,
        -0.999999999999999,
        -4.371139006309477e-08,
        0.0,
        0.0,
        0.0,
        0.0,
        1.0
      ],
      "name": "Collada visual scene group"
    },
    {
      "children": [
        3
      ],
      "name": "Box014"
    },
    {
      "mesh": 0,
      "name": "defaultMaterial"
    },
    {
      "children": [
        5
      ],
      "name": "center"
    },
    {
      "mesh": 1,
      "name": "defaultMaterial"
    },
    {
      "children": [
        7
      ],
      "name": "blade002"
    },
    {
      "mesh": 2,
      "name": "defaultMaterial"
    },
    {
      "children": [
        9
      ],
      "name": "Cylinder002"
    },
    {
      "mesh": 3,
      "name": "defaultMaterial"
    },
    {
      "children": [
        11
      ],
      "name": "Box013"
    },
    {
      "mesh": 4,
      "name": "defaultMaterial"
    },
    {
      "children": [
        13
      ],
      "name": "Box012"
    },
    {
      "mesh": 5,
      "name": "defaultMaterial"
    }
  ],
  "samplers": [
    {
      "magFilter": 9729,
      "minFilter": 9987,
      "wrapS": 10497,
      "wrapT": 10497
    }
  ],
  "scene": 0,
  "scenes": [
    {
      "name": "Sketchfab_Scene",
      "nodes": [
        0
      ]
    }
  ],
  "textures": [
    {
      "sampler": 0,
      "source": 0
    },
    {
      "sampler": 0,
      "source": 1
    },
    {
      "sampler": 0,
      "source": 2
    }
  ]
}
